/* XPM */
static char *noname[] = {
/* width height ncolors chars_per_pixel */
"32 32 287 2",
/* colors */
"   c #323227",
" . c #1D1D19",
" X c #1B1B17",
" o c #EAB95E",
" O c #434227",
" + c #373739",
" @ c #D4C227",
" # c #D5C51E",
" $ c #6B6241",
" % c #C1B707",
" & c #E8CD34",
" * c #EABC40",
" = c #504F2D",
" - c #9B9B9B",
" ; c #D9B74D",
" : c #766C4F",
" > c #E9CD21",
" , c #443D0A",
" < c #716940",
" 1 c #919191",
" 2 c #C1B214",
" 3 c #D4C320",
" 4 c #515131",
" 5 c #6B633A",
" 6 c #D1C11D",
" 7 c #6A6139",
" 8 c #696138",
" 9 c #4E4E4F",
" 0 c #818181",
" q c #7D7D7D",
" w c #FBE511",
" e c #7B7B7B",
" r c #797979",
" t c #434444",
" y c #777777",
" u c #E1C533",
" i c #757575",
" p c #DFB545",
" a c #3F4040",
" s c #444006",
" d c #737373",
" f c #CCA064",
" g c #717171",
" h c #2D2D21",
" j c #6F6F6F",
" k c #393A3A",
" l c #6F6544",
" z c #383839",
" x c #D8C820",
" c c #6D6D6D",
" v c #D7C61F",
" b c #6B6B6B",
" n c #2B462C",
" m c #6A613F",
" M c #696969",
" N c #676767",
" B c #656565",
" V c #D0B34D",
" C c #616161",
" Z c #73694B",
" A c #1A1A18",
" S c #5F5F5F",
" D c #292A2A",
" F c #5D5D5D",
" G c #C49E5F",
" H c #262627",
" J c #70683E",
" K c #FFF107",
" L c #F8E01E",
" P c #27271E",
" I c #D4C41F",
" U c #827A14",
" Y c #3A3A2A",
" T c #575757",
" R c #555555",
" E c #535353",
" W c #515151",
" Q c #73674E",
" ! c #4F4F4F",
" ~ c #4D4D4D",
" ^ c #161617",
" / c #4B4B4B",
" ( c #141415",
" ) c #494949",
" _ c #474747",
" ` c #454545",
" ' c #434343",
" ] c #21211B",
" [ c #414141",
" { c #E1C632",
" } c #3F3F3F",
" | c #D7BE3C",
".  c #3D3D3D",
".. c #EEBE56",
".X c #3B3B3B",
".o c #393939",
".O c #D9C920",
".+ c #786142",
".@ c #D8C71F",
".# c #373737",
".$ c #F6E318",
".% c #353535",
".& c #D7B628",
".* c #333333",
".= c #313131",
".- c #383724",
".; c #4C4A31",
".: c #2F2F2F",
".> c #756C4C",
"., c #444108",
".< c #2D2D2D",
".1 c #1B1B18",
".2 c #2B2B2B",
".3 c #191916",
".4 c #272727",
".5 c #252525",
".6 c #28281E",
".7 c #D4C51E",
".8 c #232323",
".9 c #C1B708",
".0 c #393928",
".q c #212121",
".w c #827C09",
".e c #1F1F1F",
".r c #1D1D1D",
".t c #1B1B1B",
".y c #5B5246",
".u c #191919",
".i c #70664A",
".p c #FFE61D",
".a c #171717",
".s c #151515",
".d c #6D6247",
".f c #141514",
".g c #483726",
".h c #D4C321",
".j c #60584E",
".k c #686138",
".l c #424241",
".z c #6D5433",
".x c #B8B8B8",
".c c #050505",
".v c #716744",
".b c #30302F",
".n c #373622",
".m c #EFD31A",
".M c #1C1C18",
".N c #A8A8A8",
".B c #1B1A17",
".V c #3A3A3C",
".C c #FBE41F",
".Z c #FEE518",
".A c #2C462E",
".S c #27271C",
".D c #C1B607",
".F c #695F3F",
".G c #9E8152",
".H c #1A1C19",
".J c #181817",
".K c #D4C12A",
".L c #F0CF35",
".P c #D8BE24",
".I c #8D8462",
".U c #827B0B",
".Y c #70654C",
".T c #828282",
".R c #726844",
".E c #DCC02B",
".W c #808080",
".Q c #C1B317",
".! c #AF8C4B",
".~ c #7E7E7E",
".^ c #7C7C7C",
"./ c #D3C022",
".( c #444545",
".) c #434344",
"._ c #414142",
".` c #767676",
".' c #EEDB0E",
".] c #3D3D3E",
".[ c #727272",
".{ c #5A5936",
".} c #7F6440",
".| c #707070",
"X  c #FDE320",
"X. c #6E6E6E",
"XX c #D8C720",
"Xo c #373738",
"XO c #D7C71F",
"X+ c #D4C226",
"X@ c #CFAD3F",
"X# c #343535",
"X$ c #333334",
"X% c #686868",
"X& c #666666",
"X* c #827C07",
"X= c #2F2F30",
"X- c #646464",
"X; c #626262",
"X: c #72684A",
"X> c #606060",
"X, c #E2CA23",
"X< c #5E5E5E",
"X1 c #171715",
"X2 c #726940",
"X3 c #5C5C5C",
"X4 c #D4C229",
"X5 c #6F673D",
"X6 c #E0B756",
"X7 c #E1BE4D",
"X8 c #D4C31F",
"X9 c #585858",
"X0 c #26261D",
"Xq c #6B6339",
"Xw c #497E35",
"Xe c #565656",
"Xr c #545454",
"Xt c #467C32",
"Xy c #1C211D",
"Xu c #525252",
"Xi c #505050",
"Xp c #4E4E4E",
"Xa c #4C4C4C",
"Xs c #4B4A4B",
"Xd c #151516",
"Xf c #8D830E",
"Xg c #4A4A4A",
"Xh c #D4C02C",
"Xj c #6E653F",
"Xk c #6B6046",
"Xl c #D4C322",
"Xz c #685E43",
"Xx c #444444",
"Xc c #22221C",
"Xv c #424242",
"Xb c #404040",
"Xn c #E8D61B",
"Xm c #3F3E3F",
"XM c #3E3E3E",
"XN c #3C3C3C",
"XB c #3A3A3A",
"XV c #393839",
"XC c #545339",
"XZ c #383838",
"XA c #575632",
"XS c #363636",
"XD c #343434",
"XF c #323232",
"XG c #786D4F",
"XH c #303030",
"XJ c #827B06",
"XK c #2E2E2E",
"XL c #2C2C2C",
"XP c #2A2A2A",
"XI c #E3C723",
"XU c #E9CF15",
"XY c #262626",
"XT c #242424",
"XR c #927344",
"XE c #D4C41E",
"XW c #202020",
"XQ c #827B09",
"X! c #1D221D",
"X~ c #1E1E1E",
"X^ c #FAD940",
"X/ c #1C1C1C",
"X( c #1A1E1A",
"X) c #191E19",
"X_ c #1A1A1A",
"X` c #181818",
"X' c #2B2B24",
"X] c #161616",
"X[ c #716841",
"X{ c #6E6348",
"X} c #D4C12B",
"X| c #151415",
"o  c #141414",
"o. c #24231D",
"oX c #3B3B23",
"oo c #4B4B36",
"oO c #B08D57",
"o+ c #FFEE16",
"o@ c #FFEA16",
"o# c #EFC14C",
"o$ c #D4C224",
"o% c #DBB360",
"o& c None",
/* pixels */
"XSXDXDXDXDXD.%.%.%.%XDXDXDXDXDXD.*XD.*.*.*.*.*.*.*.*.*XDXD.%.%.%",
"X>XP N ' W _XuXv ! ~ _XL yXxXN.o EXiXa T E ! W _ W / 9 _XLXLXL.<",
".I m.> ZX:.i.d Q.YXkX{Xz :XG.F $ l.v.RXjX[ <X2 <Xq J <X5 7 8.k 5",
" K K K.p |.C K K.D 2 K.D.D.D KXJXJ.DXJ.DXJXJ.DXJ.DXJXJ K K K K K",
".Z.Eo+X6.P p K KXJXJ KXJ.QXQ K s.DXJ KXJ s.D K KXJ s.D K K.DXJ K",
".!.G GoO { u K KXJ KXJ UXJ.D K.DXJXJ KXJ.DXJ.D.DXJ.D.U K K K K K",
".z.z.zXR.L L K K.D K K.DXJXJ K.D.D.DXJ.D.D.D.D.D.D.D.D K K K K K",
" VX7 ;X^ fo# K K K K K K K K K K K K K K K K K K K K K K K K K K",
" K K K K K K oo%.. K K K wX@ K K.DXJ.DXJ.DXJ.D.D.D.DXJ.D K K K K",
".gX  K K & K K KXI >X,.&.mXU.' K KXJXJ.wXJX* %XJ sXJ.D.D.c K K K",
"XfXn K K K K K Ko@ *.$ K K K K KXJXJXJ.,.9 ,.9XJ KXJXJ K K K K K",
"XhX}.K.KX4 @ @X+o$o$Xl.h 3X8 I I I I I I I.7 # vXO.@ x.OXXXE 6./",
"XoXoXoXoXoXoXoXoXo +XoX$ zXoXoXoXoXoXo z zXo.V.] a._.).(XoX= D H",
"XBXBXB.X.o k.X.XXBXBXB.o.X.XXN.X.XXNXNXx ` [Xx ` _ )Xg 'XSXHXDXV",
"Xa.#XLXx.sXuXeXB.s.s.sX~XBXP.r.r.rX~XK.%XD.:.e.r.r.r.5 [.e.sX| (",
".sX].HXtX(Xy n.sX]X]X]X~.:.qX].tXM.[X- e.^ r d [.rX]X/XF.eX`.y.}",
"X]X]X]Xm T TXsX]X]X]X]X~X]X]XT.[ BXF.oX< ~.*XDX%.`.4X]X].eX`.j.+",
"X]X]XaXe.l ' M _X]X]X]X~X].q d }XLXF.N 1 F.#.=XLXx r.8X].eX]X'  ",
"X]X]XMXb } }.`XSX]X]X]X~.sX& }XLXLX;.x - F.2.*XLXL _ N.a.eX]oX O",
"X]X]X/ W } }.|X]X]X]X]X~.2 N.<XLXL }.x 1 F.:XDXLXL.< c.:.eX].e.e",
" =XcX].=Xp /XC h YX]X]X~X9XMXLXLXLXL C 0 S.XXLXLXLXL _Xp.eX` b q",
"X0 AX]X]X]X]X1.B.MX]X]X~ MXLXLXLXLXLXL.<.<XLXLXLXLXL.=X..e.a.b.b",
"X]X]X]X]X]X]X]X]X]X]X].e.|.2XLXLXLXLXLXLXLXLXLXLXLXLXL.T.r.S.{XA",
"X]X]XP WX#.%X3.2 ^X]X]X~.WXLXLXLXLXLXLXLXLXLXLXLXLXLXHX..eX].f.s",
"X]X].HXwX)X!.AX]X]X]X].uXp. XLXLXLXLXLXLXLXLXLXLXLXL `XiX_X` MX.",
"X]X].a W S F 'X]X]X]X]X]XD C.<XLXLXLXLXLXLXLXLXLXL.< NXZX].a t )",
"X]X]XpXrXb [ F _X]X]X]X]X/ NXBXLXLXLXLXLXLXLXLXLXLXvX%X~X]X].0 4",
"X]X]XMXb } }.`.%X]X]X]X]X].2.|XBXLXLXLXLXLXLXLXLXM iXKX]X]X].3 X",
"X]X].tXa } } bX]X]X]X]XF }.a.: gX<XHXLXLXLXL.=X; iXF.aX]X].aXMXM",
".- ]X].4 R _oo.n.; PX] ~ SX]X].8Xv j M.`.` 0 gXxXYX]X]X]X]X`X&.~",
"o..JX]X].sX]X] ..6.1X]X]X]X]X]X]X`.eXH.%.%.=XWX`X]X]X]X]X]X]o o ",
".s.s.s.so Xd.s.s.s.s.s.s.s.s.s.s.s.s.s.s.s.s.s.s.s.s.s.s.s.s.s.s"
};
